<?xml version="1.0" encoding="UTF-8"?>
<!DOCTYPE svg PUBLIC "-//W3C//DTD SVG 1.1//EN" "http://www.w3.org/Graphics/SVG/1.1/DTD/svg11.dtd">
<!-- Creator: CorelDRAW 2020 (64 Bit) -->

<svg xmlns="http://www.w3.org/2000/svg" xml:space="preserve" version="1.1" style="shape-rendering:geometricPrecision; text-rendering:geometricPrecision; image-rendering:optimizeQuality; fill-rule:evenodd; clip-rule:evenodd"
viewBox="0 0 11377.08 24659.16"
 xmlns:xlink="http://www.w3.org/1999/xlink"
 xmlns:xodm="http://www.corel.com/coreldraw/odm/2003">
 <g id="Camada_x0020_1">
  <metadata id="CorelCorpID_0Corel-Layer"/>
  <g id="_1542689104">
   <g>
    <circle fill="currentColor" cx="5688.54" cy="12329.59" r="715.91"/>
    <g>
     <path fill="currentColor" d="M6007.2 12575.2c-97.44,0 -38.79,-146.16 29.8,-86.28 35.59,31.06 10.28,86.28 -29.8,86.28zm-720.02 -98.82c59.47,0 70.08,98.82 -4.71,98.82 -61.45,0 -58.02,-98.82 4.71,-98.82zm710.6 -80.01c-23.28,0 -94.11,8.33 -94.11,-28.23 0,-60.92 145.88,-106.13 145.88,-32.94 0,32.68 -19.94,61.17 -51.77,61.17zm-230.59 14.12l-244.71 0c-50.87,0 -80,-24.31 -80,-75.29l395.3 0c30.6,0 1.79,43.01 -5.58,50.89 -15.87,16.97 -33.47,24.4 -65.01,24.4zm-527.07 -70.59c0,-82.97 145.88,-27.69 145.88,23.53 0,12.71 -2.24,12.97 -4.7,23.53 -31.47,15.1 -141.18,25.64 -141.18,-47.06zm567.34 -351.89c66.83,2.98 66.23,23.59 115.7,144.18 23.05,56.18 39.87,35.24 -84.66,48.43 -134.67,14.26 -253.24,9.81 -386.89,-0.45 -59.92,-4.6 -105.29,2.76 -99.12,-18.97l63.02 -127.81c30.18,-77.62 330.58,-46.58 391.95,-45.38zm-496.75 140.12c-40.3,0 -117.66,-11.91 -117.66,28.24 0,42.79 30.81,55.58 70.6,56.47 -102.01,152.33 -84.71,105.59 -84.71,324.71 0,58.98 29.44,59.89 32.94,70.59 0,23.82 -1.54,52.55 -0.36,75.67 2.46,48.74 47.95,37.28 113.31,37.28 35.21,0 38.15,-24.85 37.77,-61.06 -0.45,-42.52 -2.05,-55.9 10.53,-88.29 16.86,-43.4 45.2,-100.08 102.28,-100.08l338.84 0c54.57,0 75.98,43.01 94.2,79.93 -28.88,-107.58 44.34,52.77 169.33,51.85 21.84,-11.56 32.95,-22.7 32.95,-56.47l0 -174.13c0,-27.16 -20.35,-66.22 -31.39,-86.25 -12.97,-23.53 -42.98,-52.66 -48.61,-73.75 60.53,-1.34 36.33,-13.24 25.69,-58.93 -29.5,-14.15 -34.73,-25.78 -77.46,-25.78 -4.81,-20.63 -67.81,-139.23 -85.86,-154.15 -59.94,-49.53 -436.05,-44.06 -493.25,-1.43 -18.75,13.97 -85.86,141.53 -89.14,155.58z"/>
     <path fill="currentColor" d="M5400.12 12608.14c0,16.41 6.74,37.65 23.53,37.65l442.36 0c42.81,0 16.21,-70.53 1.69,-95.81 -9.2,-16.01 -26.01,-35.95 -48.75,-35.95l-348.23 0c-46.29,0 -70.6,91.4 -70.6,94.11z"/>
     <g>
      <path fill="currentColor" d="M5785.6 12647.58l184.81 1.89c-1.95,27.75 89.29,-5.43 127.29,-46 20.08,-21.44 28.57,-55.78 28.57,-96.55l0 -194.63c0,-73.84 -17.51,-135.3 -64.62,-182.14 -0.51,-0.51 -1.25,-1.22 -1.77,-1.71 -0.2,-0.2 -4.39,-3.87 -5.53,-4.9l-32.35 -30.21c11.45,-21.63 5.91,-12.73 62.79,-13.68 29.94,-0.5 35.83,-14.22 41.48,-38.45 45.87,0 72.99,7.48 72.99,-17.38 0,-20.77 -51.64,-13.9 -72.99,-13.9 -5.05,-10.52 -2.6,-28.42 -30.26,-35.78 -15.13,-4.02 -45.87,-2.45 -67.05,-2.45 -13.81,-26.09 -22.18,-41.16 -45.6,-58.67 -22.08,-16.51 -47.66,-25.91 -73.73,-28.22l-25.5 0c-26.06,2.31 -51.64,11.71 -73.72,28.22 -23.43,17.51 -31.8,32.58 -45.6,58.67 -24.99,0 -69.78,-6.41 -86.88,13.9 -8.11,9.62 -5.26,13.54 -10.43,24.33 -30.99,0 -72.99,-8.1 -72.99,17.37 0,14.53 12.49,14.23 27.55,14.17 15.14,-0.08 30.27,-0.26 45.44,-0.26 10.82,46.46 30.08,38.17 76.74,37.95 24.87,-0.12 18.98,-1.97 27.52,14.18 -5.48,8.2 -12.36,11.18 -20,18.22l-16.06 15.23c-0.53,0.48 -1.3,1.16 -1.81,1.66 -47.94,45.76 -66.39,109.8 -66.39,183.85l0 194.63c0,42.35 8.83,76.33 30.3,98.29 20.17,20.61 52.01,50.27 87.8,42.37z"/>
      <g>
       <path fill="currentColor" d="M5764.81 11971.69c-24.99,0 -69.78,-6.41 -86.88,13.9 -8.11,9.62 -5.26,13.54 -10.43,24.33 -30.99,0 -72.99,-8.11 -72.99,17.37 0,14.53 12.49,14.23 27.55,14.17 15.14,-0.08 30.27,-0.26 45.44,-0.26 10.82,46.46 30.08,38.17 76.74,37.95 24.87,-0.12 18.98,-1.97 27.52,14.18 -4.8,7.19 -27.57,25.4 -36.06,33.45 -0.53,0.48 -1.3,1.16 -1.81,1.66 -47.94,45.76 -66.39,109.8 -66.39,183.85l0 194.63c0,42.35 8.83,76.33 30.3,98.29 20.17,20.61 66.7,55.38 81.32,40.32 18.26,-36.66 -79.59,-46.43 -80,-114.28l-0.34 -239.81c0,-80.13 42.21,-138.06 90.36,-170.31 13.29,8.9 18.5,18.29 34.84,27.73 12.92,7.46 59,34.37 59,0.08 0,-23.23 -56.41,-4.31 -90.03,-80.27 -4.6,-10.38 -4.6,-6.99 -7.29,-17.05 -29.21,0 -82.62,5.81 -83.47,-4.84 -0.69,-52.15 -15.99,-43.47 80,-43.81 23.52,-46.66 46.74,-84.17 114.95,-86.9 73.65,0.68 98.43,47 114.44,86.9 20.88,0 42.2,-0.55 62.95,-0.4 24.18,0.17 20.46,-3.28 20.46,45.58 -23.71,5.52 -57.67,3.47 -86.89,3.47 -8.18,30.65 -34.22,65.71 -67.42,78.56 -17.59,6.81 -29.9,4.35 -29.9,22.23 0,24.71 38.44,6.91 49.94,1.28 23.82,-11.67 26.83,-21.12 43.91,-32.56 48.14,32.25 90.36,90.18 90.36,170.31l0 232.86c0.34,87.3 -90.36,81.69 -90.36,107.74 0,28.81 54.73,13.7 92.73,-26.87 20.08,-21.44 28.91,-57.48 28.91,-98.25l0 -194.63c0,-73.84 -17.51,-135.3 -64.62,-182.14 -0.51,-0.51 -1.25,-1.22 -1.77,-1.71 -0.2,-0.2 -4.39,-3.87 -5.53,-4.9l-32.35 -30.21c11.45,-21.63 5.91,-12.73 62.79,-13.68 29.94,-0.5 35.83,-14.21 41.48,-38.45 45.87,0 72.99,7.48 72.99,-17.38 0,-20.77 -51.64,-13.9 -72.99,-13.9 -5.05,-10.52 -2.6,-28.42 -30.26,-35.78 -15.13,-4.02 -45.87,-2.45 -67.05,-2.45 -13.81,-26.09 -22.18,-41.16 -45.6,-58.67 -50.64,-37.85 -122.32,-37.85 -172.95,0 -23.43,17.51 -31.8,32.58 -45.6,58.67z"/>
       <path fill="currentColor" d="M5803.05 12468.69c0,-154.67 180.73,-124.08 180.73,-27.81l0 48.67 -180.73 0 0 -20.86zm95.87 305.85l-13.57 0c-38.86,-3.16 -75.36,-33.64 -75.36,-104.27l0 -152.93c-44.04,0 -34.75,12.36 -34.75,-79.93 0,-27.8 20.81,-60.36 36.36,-74.86 85.19,-79.45 203.45,-3.28 203.45,78.33 0,39.78 7.21,76.46 -13.9,76.46l-159.88 0 0 170.31c0,29.4 17.15,50.26 41.94,55.63 24.92,5.4 49.53,-7.17 58.95,-27.73 8.42,-18.38 3.38,-68.2 3.38,-93.94 0,-25.31 -7.76,-76.46 17.38,-76.46 8.14,0 13.9,5.77 13.9,13.9l0 139.02c0,43.35 -38.11,73.39 -77.9,76.47z"/>
       <path fill="currentColor" d="M5841.27 12030.77c0,-78.86 111.22,-78.86 111.22,0 0,36.93 -53.25,72.47 -93.03,37.42 -6.94,-6.11 -18.19,-25.53 -18.19,-37.42zm59.09 -90.36c-116.64,0 -118.12,172.05 -3.48,172.05 47.57,0 82.08,-36.18 86.12,-82.55 3.93,-45.2 -39.8,-89.5 -82.64,-89.5z"/>
       <path fill="currentColor" d="M5844.75 12291.44c0,21.85 42.39,13.9 86.89,13.9 15.81,0 17,-27.81 0,-27.81 -44.5,0 -86.89,-7.95 -86.89,13.91z"/>
      </g>
      <path fill="currentColor" d="M5783.69 12640.93c-7.23,-3.56 -5.29,-9.79 -10.62,-17.67 -4.89,-7.23 -15.05,-10.83 -37.2,-30.59 -14.15,-12.6 -37.09,-36.26 -37.09,-61.42l0 -239.81c0,-80.13 42.21,-138.06 90.36,-170.31 13.29,8.9 18.5,18.29 34.84,27.72 12.92,7.47 59,34.38 59,0.09 -5.85,-18.33 -74.04,-6.23 -95.72,-91.93 -17.67,-10.38 -84.2,5.2 -85.07,-10.23 0.97,-49.02 -17.52,-38.82 80,-43.81 24.93,-47.72 43.7,-94.17 128.59,-89.2 31.47,0 69.31,29.89 83.52,57.82 6.23,12.25 9.74,20.13 17.28,31.38 20.88,0 42.2,-0.55 62.95,-0.4 24.18,0.17 20.46,-3.28 20.46,45.58 -23.71,5.52 -57.67,3.47 -86.89,3.47 -8.18,30.65 -34.22,65.71 -67.42,78.56 -17.59,6.81 -29.9,4.35 -29.9,22.23 0,24.71 38.44,6.91 49.94,1.28 23.82,-11.67 26.83,-21.12 43.91,-32.56 48.14,32.25 90.36,90.18 90.36,170.31l0 232.86c0.54,37.77 -30.9,80.97 -82.96,95.36 -7.95,2.3 -3.85,14.92 7.98,16.78 8.5,1.33 -60.94,-13.23 -58.39,26.29 8.44,116.41 -127.52,148.36 -138.5,-2.45 -6.54,-25.2 -39.46,-15.81 -39.43,-19.35z"/>
      <path fill="currentColor" d="M5841.27 12030.77c0,-78.86 111.22,-78.86 111.22,0 0,36.93 -53.25,72.47 -93.03,37.42 -6.94,-6.11 -18.19,-25.53 -18.19,-37.42zm59.09 -90.36c-116.64,0 -118.12,172.05 -3.48,172.05 47.57,0 82.08,-36.18 86.12,-82.55 3.93,-45.2 -39.8,-89.5 -82.64,-89.5z"/>
      <path fill="currentColor" d="M5844.75 12280.79c0,21.85 42.39,13.9 86.89,13.9 15.81,0 17,-27.81 0,-27.81 -44.5,0 -86.89,-7.95 -86.89,13.91z"/>
      <path fill="currentColor" d="M5803.05 12468.69c0,-154.67 180.73,-124.08 180.73,-27.81l0 48.67 -180.73 0 0 -20.86zm95.87 305.85l-13.57 0c-38.86,-3.16 -75.36,-33.64 -75.36,-104.27l0 -152.93c-44.04,0 -34.75,12.36 -34.75,-79.93 0,-27.8 20.81,-60.36 36.36,-74.86 85.19,-79.45 203.45,-3.28 203.45,78.33 0,39.78 7.21,76.46 -13.9,76.46l-159.88 0 0 170.31c0,29.4 17.15,50.26 41.94,55.63 24.92,5.4 49.53,-7.17 58.95,-27.73 8.42,-18.38 3.38,-68.2 3.38,-93.94 0,-25.31 -7.76,-76.46 17.38,-76.46 8.14,0 13.9,5.77 13.9,13.9l0 139.02c0,43.35 -38.11,73.39 -77.9,76.47z"/>
     </g>
    </g>
   </g>
   <path fill="currentColor" d="M5806.01 12631.93l-23.72 -8.4c1.88,17.98 -12.31,24.99 -25.87,18.83l49.57 16.22 0.02 -26.65z"/>
   <path fill="currentColor" d="M5980.9 12618.55l33.57 -7.9c-16.79,3.95 -9.37,40.62 25.5,28.81l-59.12 20.02 0.05 -40.93z"/>
  </g>
 </g>
</svg>
